<svg width="268" height="40" viewBox="0 0 268 40" fill="none" xmlns="http://www.w3.org/2000/svg">
<path d="M260.035 17.7311V14.0918C260.035 13.4676 260.338 13.0184 260.939 13.0184C261.541 13.0184 261.843 13.4643 261.843 14.0918V17.7311H260.035ZM260.898 33.4741C265.246 33.4741 268 31.0633 268 26.6181V23.7582H261.843V27.2423C261.843 27.8235 261.541 28.2925 260.939 28.2925C260.338 28.2925 260.035 27.8235 260.035 27.2423V22.4174H268V15.0032C268 10.3797 265.243 7.87976 260.898 7.87976C256.553 7.87976 253.86 10.426 253.86 15.0032V26.6379C253.86 30.8817 256.527 33.4708 260.898 33.4708M242.301 33.4741C244.173 33.4741 245.637 32.2456 246.392 30.1914V33.0283H252.223V8.3289H246.067V26.9979C246.067 27.8896 245.615 28.1802 245.207 28.1802C244.778 28.1802 244.412 27.9127 244.412 27.1531V8.3289H238.255V28.5138C238.255 31.8427 239.675 33.4708 242.301 33.4708M228.546 27.2423V14.1116C228.546 13.5072 228.848 12.9953 229.428 12.9953C230.052 12.9953 230.31 13.5105 230.31 14.1116V27.2423C230.31 27.8467 230.029 28.3585 229.428 28.3585C228.826 28.3585 228.546 27.8434 228.546 27.2423ZM226.435 33.4741C228.244 33.4741 229.6 32.5362 230.31 30.8156V39.947H236.466V8.3289H230.31V10.6737C229.663 9.08847 228.33 7.88306 226.435 7.88306C223.873 7.88306 222.218 9.55743 222.218 13.5534V28.2231C222.218 31.9517 224.07 33.4708 226.435 33.4708M214.04 4.08519C214.04 6.09311 215.482 7.59244 217.42 7.59244C219.359 7.59244 220.82 6.09641 220.82 4.08519C220.82 2.07397 219.378 0.558122 217.42 0.558122C215.463 0.558122 214.04 2.00792 214.04 4.08519ZM214.339 33.025H220.495V8.3289H214.339V33.025ZM199.918 33.025H206.075V14.9834C206.075 14.313 206.377 13.9795 206.807 13.9795C207.196 13.9795 207.409 14.2239 207.409 14.739V21.5059H213.091V12.7509C213.091 9.49138 212.037 8.01846 209.905 8.01846C208.074 8.01846 206.568 9.31304 205.773 11.747V8.3289H199.918V33.025ZM188.424 34.1214V39.9503H194.535V34.1214C194.535 32.9391 194.988 32.447 196.56 32.447L198.757 8.3289H192.559L191.46 27.5098H191.419L190.298 8.3289H184.056L186.358 32.447C187.755 32.447 188.424 32.9391 188.424 34.1214ZM172.583 33.025H184.508V27.2192H179.042V1.00396H172.587V33.025H172.583ZM143.138 17.5957C143.418 15.1849 144.815 13.7087 147.247 13.7087C149.679 13.7087 150.972 15.3599 151.035 17.5957H143.135H143.138ZM140.683 6.49931H153.038L155.858 0.267502H141.954L140.683 6.49931ZM147.098 33.8539C156.934 33.8539 164.447 30.5712 165.523 24.3196H151.102C150.822 26.3077 149.317 27.4239 147.292 27.4239C144.363 27.4239 143.201 25.3929 143.074 22.7344H165.631V21.5521C165.631 12.3282 158.204 7.50658 147.314 7.50658C135.539 7.50658 128.759 12.6651 128.759 20.8817C128.759 29.0983 136.185 33.8572 147.098 33.8572M118.47 33.6062C122.367 33.6062 125.165 32.8235 126.865 31.9318V25.4556C125.897 25.7694 124.821 26.0138 123.592 26.0138C121.526 26.0138 120.234 25.2113 120.234 22.708V15.5845H126.906V8.3289H120.234V0.51519L106.265 3.37515V8.3322H101.379V15.5878H106.265V24.521C106.265 31.42 112.164 33.6095 118.47 33.6095M79.7261 6.49931H89.327L92.0614 3.19351L94.7736 6.49931H104.244L99.5709 0.0660499C94.4903 0.511887 89.4766 0.511887 84.396 0.0660499L79.7261 6.49601V6.49931ZM84.8703 33.025H98.8387V8.3289H84.8703V33.025ZM60.1392 24.5409C60.1392 23.0217 61.0846 22.3084 63.6917 21.7734L66.9419 21.1921V23.9167C66.9419 26.06 65.0256 26.9319 63.262 26.9319C61.4984 26.9319 60.1423 26.1294 60.1423 24.5442M56.0072 33.8539C60.6358 33.8539 64.6372 32.5362 67.308 29.5441C67.4799 30.8618 67.7154 32.0012 67.9765 33.0283H81.8589C81.2573 30.6835 80.9135 28.9629 80.9135 26.5983V18.1142C80.9135 10.2972 73.3786 7.50658 63.9942 7.50658C54.6097 7.50658 47.269 10.2543 46.7088 16.3936H61.0655C61.2374 14.6301 62.3134 13.7153 64.1852 13.7153C65.8628 13.7153 66.9387 14.5871 66.9387 16.3044V17.1532L57.2965 17.8896C48.7938 18.5369 45.7156 21.06 45.7156 25.9741C45.7156 30.8883 49.6342 33.8572 56.004 33.8572M17.6292 34.0554C22.818 34.0554 27.3383 32.6056 29.8563 29.5673V33.0283H42.8792V15.4557H19.9307V22.4438H28.2837C27.8094 24.5442 25.9376 26.1062 22.8817 26.1062C18.3391 26.1062 15.8211 22.9358 15.8211 16.9286C15.8211 10.4986 18.1035 7.52639 22.2768 7.52639C25.1195 7.52639 26.9468 9.20076 27.1409 12.0145H42.8315C42.1216 4.51121 34.2461 0 21.9107 0C8.76048 0 0 5.94119 0 17.6849C0 28.4246 6.52261 34.052 17.6292 34.052" fill="#242627"/>
</svg>
